<?xml version="1.0" encoding="utf-8"?>
<!-- Generator: Adobe Illustrator 26.2.1, SVG Export Plug-In . SVG Version: 6.00 Build 0)  -->
<svg version="1.1" id="Capa_1" xmlns="http://www.w3.org/2000/svg" xmlns:xlink="http://www.w3.org/1999/xlink" x="0px" y="0px"
	 viewBox="0 0 586 171" style="enable-background:new 0 0 586 171;" xml:space="preserve">
<style type="text/css">
	.st0{fill:#222222;}
</style>
<g>
	<g>
		<path class="st0" d="M203.1,86.6V58h19v28.6h26.2v18.7h-26.2v28.6h-19v-28.6h-26V86.6H203.1z"/>
	</g>
	<g>
		<polygon class="st0" points="42.5,133.8 112.4,133.8 118,111.2 60.5,61.9 		"/>
		<polygon class="st0" points="61.5,57.8 119,107.1 136,38.8 66.2,38.8 		"/>
		<polygon class="st0" points="122.1,109.8 150.2,133.9 178.6,20.1 144.5,20.1 		"/>
	</g>
	<g>
		<path class="st0" d="M287.5,71.1v18.2h18.4v13.1h-18.4V134h-16.3V57.8h41.6v13.3H287.5z"/>
		<path class="st0" d="M344,135.9c-15.7,0-25-9.7-25-23.3V79.2c0-13.5,9.4-23.2,25-23.2c15.8,0,25,9.7,25,23.2v33.4
			C369,126.2,359.8,135.9,344,135.9z M352.6,78.3c0-5.1-3.1-8.6-8.6-8.6c-5.4,0-8.5,3.4-8.5,8.6v35.2c0,5.1,3.1,8.6,8.5,8.6
			c5.5,0,8.6-3.4,8.6-8.6V78.3z"/>
		<path class="st0" d="M403.9,135.9c-16.1,0-25.5-10.4-25.5-23.6V79.4c0-13.1,9.4-23.6,25.5-23.6c15.9,0,24,9.5,24,22.2v7.4h-14.6
			v-7.1c0-5.3-3.1-8.7-9.1-8.7c-6.1,0-9.1,3.5-9.1,8.5v35.6c0,4.8,3.1,8.3,9.1,8.3c6.1,0,9.1-3.4,9.1-8.7v-7.1h14.6v7.4
			C427.9,126.4,419.8,135.9,403.9,135.9z"/>
		<path class="st0" d="M461.7,135.9c-14.4,0-24.9-8.7-24.9-21.4V57.8h16.6v56.5c0,5.1,3,8,8.3,8c5.5,0,8.6-2.9,8.6-8V57.8h15.9v56.7
			C486.1,127.2,476.2,135.9,461.7,135.9z"/>
		<path class="st0" d="M519.2,135.9c-15,0-24.5-8.6-24.5-21.6v-3.9h15v2.5c0,6.4,3.2,9.8,9.1,9.8c5.8,0,8.7-3.3,8.7-8.6
			c0-5.5-4.3-8.8-13.1-13.4c-9.1-4.9-18.9-11-18.9-22.6c0-11.7,8.3-22.2,23.9-22.2c13.9,0,23.2,9.4,23.2,21.5v3.1h-14.7v-2.4
			c0-5.1-2.9-9.1-8.6-9.1c-4.8,0-7.9,3-7.9,7.5c0,5.4,4.3,8.3,14.1,13.4c10.6,5.8,18.1,11.8,18.1,22.9
			C543.5,125.2,534.4,135.9,519.2,135.9z"/>
	</g>
</g>
</svg>
